<svg width="21" height="21" viewBox="0 0 21 21" fill="none" xmlns="http://www.w3.org/2000/svg">
<path fill-rule="evenodd" clip-rule="evenodd" d="M16.1824 20.0264C16.1635 20.0291 16.1446 20.03 16.1248 20.03H4.38986C4.35925 20.03 4.32775 20.0273 4.29714 20.0219C2.47605 19.8995 1.03035 18.3519 1.03035 16.4669V14.5019C1.03035 14.2103 1.2671 13.9737 1.55876 13.9737H4.54379L4.66982 1.52366C4.67252 1.23394 4.90837 1 5.19913 1H19.2799C19.5716 1 19.8083 1.23664 19.8083 1.52816V16.4669C19.8083 18.432 18.2393 20.03 16.3102 20.03C16.267 20.03 16.2247 20.0282 16.1824 20.0264Z" stroke="white" stroke-width="1.2"/>
<path fill-rule="evenodd" clip-rule="evenodd" d="M8.4325 4.9286H10.9037C11.1956 4.9286 11.4323 4.69254 11.4323 4.40109C11.4323 4.10965 11.1956 3.87359 10.9037 3.87359H8.4325C8.14076 3.87359 7.90387 4.10965 7.90387 4.40109C7.90387 4.69254 8.14076 4.9286 8.4325 4.9286Z" stroke="white" stroke-width="1.2"/>
<path fill-rule="evenodd" clip-rule="evenodd" d="M8.4324 8.41419H15.6187C15.9105 8.41419 16.1472 8.1778 16.1472 7.88669C16.1472 7.59525 15.9105 7.35918 15.6187 7.35918H8.4324C8.14072 7.35918 7.90386 7.59525 7.90386 7.88669C7.90386 8.1778 8.14072 8.41419 8.4324 8.41419Z" stroke="white" stroke-width="1.2"/>
<path fill-rule="evenodd" clip-rule="evenodd" d="M8.4324 11.8991H15.6187C15.9105 11.8991 16.1472 11.6607 16.1472 11.3666C16.1472 11.0724 15.9105 10.8341 15.6187 10.8341H8.4324C8.14072 10.8341 7.90386 11.0724 7.90386 11.3666C7.90386 11.6607 8.14072 11.8991 8.4324 11.8991Z" stroke="white" stroke-width="1.2"/>
</svg>
