<svg width="17" height="21" viewBox="0 0 17 21" fill="none" xmlns="http://www.w3.org/2000/svg">
<path d="M12.25 2.875H14.125C14.6223 2.875 15.0992 3.07254 15.4508 3.42417C15.8025 3.77581 16 4.25272 16 4.75V17.875C16 18.3723 15.8025 18.8492 15.4508 19.2008C15.0992 19.5525 14.6223 19.75 14.125 19.75H2.875C2.37772 19.75 1.90081 19.5525 1.54917 19.2008C1.19754 18.8492 1 18.3723 1 17.875V4.75C1 4.25272 1.19754 3.77581 1.54917 3.42417C1.90081 3.07254 2.37772 2.875 2.875 2.875H4.75" stroke="#383838" stroke-width="1.5" stroke-linecap="round" stroke-linejoin="round"/>
<path d="M11.3125 1H5.6875C5.16973 1 4.75 1.41973 4.75 1.9375V3.8125C4.75 4.33027 5.16973 4.75 5.6875 4.75H11.3125C11.8303 4.75 12.25 4.33027 12.25 3.8125V1.9375C12.25 1.41973 11.8303 1 11.3125 1Z" stroke="#383838" stroke-width="1.5" stroke-linecap="round" stroke-linejoin="round"/>
</svg>
