<svg width="22" height="20" viewBox="0 0 22 20" fill="none" xmlns="http://www.w3.org/2000/svg">
<path fill-rule="evenodd" clip-rule="evenodd" d="M21.3023 8.24634L11.5944 1.13657C11.4072 0.999492 11.1529 0.999492 10.9658 1.13657L1.25784 8.24634C1.02072 8.42002 0.969199 8.75307 1.14284 8.99025C1.31648 9.22744 1.64948 9.27889 1.88656 9.10528L11.2801 2.2257L20.6736 9.10524C20.7683 9.17466 20.8784 9.20807 20.9875 9.20807C21.1513 9.20807 21.313 9.13265 21.4172 8.99021C21.5909 8.75307 21.5394 8.42002 21.3023 8.24634Z" fill="white" stroke="white" stroke-width="0.5"/>
<path fill-rule="evenodd" clip-rule="evenodd" d="M18.732 9.2234C18.4381 9.2234 18.1997 9.46155 18.1997 9.75533V18.2223H13.9418V13.6005C13.9418 12.1338 12.7478 10.9406 11.2803 10.9406C9.81286 10.9406 8.61889 12.1339 8.61889 13.6005V18.2223H4.36092V9.75537C4.36092 9.46159 4.12258 9.22344 3.82867 9.22344C3.53476 9.22344 3.29642 9.46159 3.29642 9.75537V18.7543C3.29642 19.048 3.53476 19.2862 3.82867 19.2862H9.15114C9.43105 19.2862 9.6601 19.0701 9.68131 18.7957C9.68259 18.7833 9.68339 18.7697 9.68339 18.7543V13.6005C9.68339 12.7205 10.3998 12.0045 11.2803 12.0045C12.1609 12.0045 12.8773 12.7205 12.8773 13.6005V18.7543C12.8773 18.7696 12.8781 18.7829 12.8794 18.7952C12.9003 19.0698 13.1295 19.2862 13.4095 19.2862H18.732C19.026 19.2862 19.2643 19.048 19.2643 18.7543V9.75537C19.2642 9.46155 19.0259 9.2234 18.732 9.2234Z" fill="white" stroke="white" stroke-width="0.5"/>
</svg>
