<svg width="21" height="14" viewBox="0 0 21 14" fill="none" xmlns="http://www.w3.org/2000/svg">
<path fill-rule="evenodd" clip-rule="evenodd" d="M19.8372 0H13.3136C12.9588 0 12.6708 0.287644 12.6708 0.642897V1.94149C12.6708 2.29635 12.9588 2.58439 13.3136 2.58439H16.0692L10.4308 8.22324L8.0404 5.83248C7.5356 5.32801 6.7176 5.32801 6.2128 5.83248L0.1884 11.8586C-0.0628 12.1094 -0.0628 12.5167 0.1884 12.7675L1.1064 13.6861C1.3572 13.9369 1.7644 13.9369 2.0152 13.6861L7.1268 8.5737L9.5168 10.9645C10.0216 11.4695 10.8397 11.4697 11.3444 10.9645L17.896 4.41187V7.16789C17.896 7.52274 18.1836 7.81078 18.5388 7.81078H19.8372C20.1924 7.81078 20.48 7.52274 20.48 7.16789V0.642897C20.48 0.287644 20.1924 0 19.8372 0Z" fill="white"/>
</svg>
