<svg width="20" height="17" viewBox="0 0 20 17" fill="none" xmlns="http://www.w3.org/2000/svg">
<path d="M13.2727 15.7273V14.091C13.2727 13.223 12.9279 12.3906 12.3142 11.7768C11.7004 11.163 10.868 10.8182 10 10.8182H4.27273C3.40475 10.8182 2.57232 11.163 1.95856 11.7768C1.3448 12.3906 1 13.223 1 14.091V15.7273" stroke="#383838" stroke-width="1.5" stroke-linecap="round" stroke-linejoin="round"/>
<path d="M7.1365 7.54545C8.94397 7.54545 10.4092 6.0802 10.4092 4.27273C10.4092 2.46525 8.94397 1 7.1365 1C5.32902 1 3.86377 2.46525 3.86377 4.27273C3.86377 6.0802 5.32902 7.54545 7.1365 7.54545Z" stroke="#383838" stroke-width="1.5" stroke-linecap="round" stroke-linejoin="round"/>
<path d="M14.0908 7.54542L15.7272 9.18178L18.9999 5.90906" stroke="#383838" stroke-width="1.5" stroke-linecap="round" stroke-linejoin="round"/>
</svg>
